<svg width="60" height="60" viewBox="0 0 60 60" fill="none" xmlns="http://www.w3.org/2000/svg">
<path d="M34.8089 24.0912L30.551 28.0531L26.5999 20.0838L28.6444 15.5008C29.1619 14.5821 30.0062 14.5803 30.5237 15.5008L34.8089 24.0912Z" fill="#FFA000"/>
<path d="M30.5513 28.053L14.6399 42.8551L26.6002 20.0837L30.5513 28.053Z" fill="#F57F17"/>
<path d="M39.4659 18.0353C40.2266 17.3041 41.0131 17.5535 41.2134 18.5894L45.3551 42.6568L31.6257 50.8852C31.1453 51.1505 29.873 51.2655 29.873 51.2655C29.873 51.2655 28.7116 51.1267 28.269 50.8811L14.6391 42.8543L39.4659 18.0353Z" fill="#FFCA28"/>
<path d="M26.6002 20.0837L14.6399 42.8551L19.9672 9.57409C20.1634 8.53733 20.7535 8.43749 21.2801 9.35261L26.6002 20.0837Z" fill="#FFA000"/>
</svg>
