<svg width="50" height="50" viewBox="0 0 50 50" fill="none" xmlns="http://www.w3.org/2000/svg">
<path d="M4.42422 21.5606C4.42422 24.0976 6.04864 27.5768 8.58565 28.4293V28.5295C6.70049 29.3616 6.17911 33.6031 8.68585 35.1273V35.2275C5.94844 36.1301 4.14346 37.8647 4.14346 40.863C4.14346 46.027 9.03682 47.4608 13.3184 47.4608C18.5325 47.4608 22.4131 45.5856 22.4131 39.8401C22.4131 32.771 12.2856 35.3782 12.2856 31.5376C12.2856 30.1842 13.0075 29.6627 14.2609 29.4018C18.4223 28.63 21.0293 25.3911 21.0293 21.1597C21.0293 20.4277 20.8788 19.7357 20.6282 19.054C21.3001 18.9035 21.9519 18.7229 22.6036 18.5024V13.4387C20.8789 14.1205 19.0239 14.6219 17.1388 14.6219C11.744 11.5135 4.42422 14.7522 4.42422 21.5606ZM13.2181 37.9852C14.9229 37.9852 17.3493 38.286 17.3493 40.4919C17.3493 42.6779 15.3941 43.1291 13.5691 43.1291C11.8345 43.1291 9.22735 42.8584 9.22735 40.6022C9.23731 38.3661 11.4433 37.9852 13.2181 37.9852ZM12.8972 25C10.6912 25 9.7587 23.6966 9.7587 21.6109C9.7587 16.6676 15.8752 16.7177 15.8752 21.5606C15.8752 23.5962 15.0731 25 12.8972 25ZM45.8565 29.9633V34.8768C44.5229 35.6085 42.7983 35.8594 41.294 35.8594C35.9295 35.8594 35.2979 31.6277 35.2979 27.2663V18.4723H35.348V18.3722C34.646 18.3722 34.6161 18.2115 32.9415 18.4723V13.7095H35.348C35.348 11.4734 35.3782 10.601 35.1976 9.57831H40.8832C40.6825 10.9621 40.7327 12.3357 40.7327 13.7095H45.8465V18.4723C45.8465 18.4723 43.9111 18.3722 40.7327 18.3722V27.5067C40.7327 28.9909 41.0636 30.7959 42.9187 30.7959C43.9012 30.7959 45.0542 30.5151 45.8565 29.9633ZM31.2168 6.21923C31.2168 8.09433 29.7629 9.84902 27.8277 9.84902C25.8423 9.84902 24.3683 8.12441 24.3683 6.21923C24.3683 4.28398 25.8222 2.53915 27.8277 2.53915C29.8131 2.53915 31.2168 4.34404 31.2168 6.21923ZM30.5951 13.6894C30.4146 15.1533 30.4348 33.7235 30.5951 35.5286H25.03C25.1904 33.7138 25.2105 15.1734 25.03 13.6894H30.5951V13.6894Z" fill="#F05033"/>
</svg>
