<svg width="50" height="50" viewBox="0 0 50 50" fill="none" xmlns="http://www.w3.org/2000/svg">
<path d="M25 50C38.8071 50 50 38.8071 50 25C50 11.1929 38.8071 0 25 0C11.1929 0 0 11.1929 0 25C0 38.8071 11.1929 50 25 50Z" fill="#F0DB4F"/>
<path d="M17.2 15.3H21.55V27.55C21.55 33.05 18.9 35 14.7 35C13.65 35 12.35 34.85 11.5 34.55L12 31C12.6 31.2 13.4 31.35 14.25 31.35C16.1 31.35 17.25 30.5 17.25 27.55L17.2 15.3Z" fill="#323330"/>
<path d="M25.4 30.2C26.55 30.8 28.4 31.4 30.25 31.4C32.25 31.4 33.3 30.55 33.3 29.25C33.3 28.05 32.4 27.35 30.05 26.55C26.85 25.4 24.7 23.6 24.7 20.75C24.7 17.5 27.5 15 32.05 15C34.25 15 35.85 15.45 37 16L36 19.5C35.25 19.15 33.85 18.6 32 18.6C30.1 18.6 29.2 19.5 29.2 20.45C29.2 21.7 30.25 22.25 32.8 23.2C36.2 24.45 37.8 26.25 37.8 29C37.8 32.25 35.35 35 30 35C27.8 35 25.6 34.4 24.5 33.8L25.4 30.2Z" fill="#323330"/>
</svg>
