<svg width="50" height="50" viewBox="0 0 50 50" fill="none" xmlns="http://www.w3.org/2000/svg">
<path d="M29.4406 0C29.079 0 28.7433 0.0777816 28.4334 0.181485C29.0919 0.622233 29.4535 1.20558 29.6343 1.8667C29.6472 1.95744 29.673 2.02226 29.6859 2.113C29.6989 2.19078 29.7117 2.26856 29.7117 2.34634C29.7634 3.4871 29.4147 3.6297 29.1694 4.30379C28.7949 5.17232 28.8982 6.10568 29.3502 6.85754C29.3889 6.94828 29.4406 7.05199 29.5051 7.14273C29.0145 3.86304 31.739 3.37044 32.2426 2.34634C32.2813 1.45188 31.5453 0.855572 30.9643 0.440748C30.409 0.103706 29.9054 0 29.4406 0ZM33.5468 0.738904C33.4951 1.03706 33.5338 0.959278 33.521 1.11484C33.508 1.21854 33.508 1.34818 33.4952 1.45188C33.4694 1.55559 33.4435 1.65929 33.4048 1.763C33.379 1.8667 33.3402 1.97041 33.3015 2.07411C33.2498 2.17782 33.2111 2.26856 33.1594 2.37227C33.1207 2.42414 33.0949 2.47597 33.0561 2.52783C33.0303 2.56672 33.0045 2.60561 32.9787 2.6445C32.9141 2.73524 32.8495 2.82598 32.785 2.90376C32.7075 2.98154 32.6429 3.07228 32.5525 3.1371C32.5525 3.15008 32.5525 3.15008 32.5525 3.15008C32.4751 3.2149 32.3976 3.29268 32.3072 3.35749C32.036 3.5649 31.7261 3.72046 31.4421 3.91491C31.3517 3.97972 31.2613 4.03158 31.1838 4.10936C31.0934 4.17417 31.0159 4.23899 30.9385 4.31677C30.8481 4.39455 30.7835 4.47233 30.706 4.56307C30.6415 4.64085 30.564 4.73159 30.5124 4.82234C30.4478 4.91308 30.3832 5.00382 30.3316 5.09456C30.2799 5.19826 30.2412 5.28901 30.1895 5.39271C30.1508 5.49642 30.1121 5.58716 30.0862 5.69087C30.0475 5.80754 30.0217 5.91124 29.9959 6.01495C29.9829 6.06682 29.9829 6.13162 29.9701 6.18347C29.9571 6.23534 29.9571 6.28717 29.9442 6.33903C29.9442 6.44273 29.9313 6.55941 29.9313 6.66311C29.9313 6.74089 29.9313 6.81867 29.9442 6.89645C29.9442 7.00015 29.9572 7.10386 29.983 7.22053C29.9959 7.32423 30.0217 7.42794 30.0475 7.53165C30.0863 7.63535 30.1121 7.73906 30.1508 7.84276C30.1767 7.90758 30.2154 7.9724 30.2412 8.02425L27.2713 6.87052C26.7677 6.72792 26.2771 6.5983 25.7735 6.48163C25.5023 6.41681 25.2312 6.35199 24.96 6.28718C24.1852 6.13162 23.3976 6.01495 22.6099 5.93717C22.5841 5.93717 22.5712 5.92419 22.5453 5.92419C21.7706 5.84641 21.0087 5.80752 20.234 5.80752C19.6658 5.80752 19.0977 5.83343 18.5424 5.87234C17.7548 5.92421 16.9671 6.0279 16.1794 6.15753C15.9857 6.18343 15.7921 6.22235 15.5984 6.26124C15.1981 6.33901 14.8107 6.42976 14.4362 6.5205C14.2426 6.57238 14.0489 6.62421 13.8552 6.67606C13.6615 6.75383 13.4807 6.84458 13.2999 6.92236C13.1579 6.98717 13.0159 7.05199 12.8738 7.11681C12.848 7.12979 12.8221 7.12979 12.8093 7.14272C12.6801 7.20753 12.5639 7.25938 12.4477 7.3242C12.409 7.33718 12.3831 7.35011 12.3573 7.36309C12.2153 7.42791 12.0732 7.50568 11.957 7.5705C11.8666 7.60939 11.7763 7.66124 11.6988 7.70014C11.66 7.72604 11.6084 7.75201 11.5826 7.76495C11.4663 7.82976 11.3501 7.89458 11.2468 7.9594C11.1306 8.02421 11.0273 8.08903 10.9369 8.15384C10.8465 8.21866 10.7562 8.27051 10.6787 8.33533C10.6657 8.34831 10.6529 8.34831 10.6399 8.36123C10.5625 8.41311 10.4721 8.4779 10.3946 8.54272C10.3946 8.54272 10.3817 8.5557 10.3688 8.56863C10.3042 8.6205 10.2397 8.67233 10.1751 8.72418C10.1493 8.73716 10.1234 8.76307 10.0976 8.77606C10.0331 8.82793 9.96851 8.89273 9.90395 8.94458C9.89101 8.97049 9.86521 8.98347 9.85228 8.99646C9.7748 9.07423 9.69733 9.13905 9.61985 9.21683C9.60692 9.21683 9.60692 9.22981 9.59404 9.24273C9.51657 9.30755 9.43909 9.38533 9.36162 9.46311C9.34868 9.47609 9.34868 9.48902 9.33581 9.48902C9.27125 9.55383 9.20669 9.61865 9.14212 9.69642C9.11632 9.72233 9.07756 9.7483 9.05174 9.7742C8.98718 9.85198 8.9097 9.92976 8.83222 10.0075C8.81929 10.0335 8.79349 10.0464 8.78055 10.0724C8.67725 10.1761 8.58686 10.2798 8.48356 10.3835C8.47063 10.3965 8.45776 10.4094 8.44483 10.4224C8.23822 10.6427 8.01871 10.8631 7.78628 11.0576C7.55386 11.265 7.30852 11.4594 7.06318 11.6279C6.80493 11.8094 6.55959 11.965 6.28842 12.1205C6.03017 12.2631 5.75901 12.3928 5.47493 12.5094C5.20377 12.6261 4.91969 12.7298 4.63562 12.8206C4.09328 12.9372 3.53804 13.1576 3.06028 13.1965C2.95698 13.1965 2.84076 13.2224 2.73747 13.2354C2.62125 13.2613 2.51795 13.2873 2.41465 13.3132C2.31135 13.352 2.20805 13.3909 2.10475 13.4298C2.00145 13.4687 1.89815 13.5206 1.79485 13.5724C1.70446 13.6372 1.60116 13.6891 1.51077 13.7539C1.42038 13.8187 1.32999 13.8965 1.25252 13.9743C1.16213 14.0391 1.07174 14.1298 0.994267 14.2076C0.916791 14.2984 0.839315 14.3761 0.774754 14.4669C0.710192 14.5706 0.632716 14.6613 0.581063 14.765C0.516502 14.8558 0.451941 14.9595 0.400288 15.0632C0.348617 15.1799 0.296989 15.2836 0.258251 15.4002C0.219513 15.5039 0.180775 15.6206 0.142037 15.7373C0.116232 15.841 0.0903658 15.9447 0.0774754 16.0484C0.0774754 16.0614 0.0645429 16.0743 0.0645429 16.0873C0.0387378 16.204 0.0387378 16.3595 0.0258048 16.4373C0.0128724 16.528 0 16.6058 0 16.6966C0 16.7484 0 16.8132 0.0129324 16.8651C0.0258649 16.9558 0.0387372 17.0336 0.0646033 17.1114C0.0904083 17.1892 0.116274 17.2669 0.154988 17.3447C0.154988 17.3577 0.154988 17.3577 0.154988 17.3577C0.193726 17.4355 0.245379 17.5133 0.297025 17.591C0.348696 17.6688 0.400331 17.7466 0.464892 17.8244C0.529453 17.8892 0.606929 17.967 0.684405 18.0318C0.761881 18.1096 0.839358 18.1744 0.929742 18.2392C1.23965 18.5114 1.31712 18.6022 1.71741 18.8096C1.78197 18.8485 1.84654 18.8744 1.92402 18.9133C1.93695 18.9133 1.94982 18.9263 1.96275 18.9263C1.96275 18.9522 1.96275 18.9652 1.97569 18.9911C1.98862 19.0948 2.01443 19.1985 2.04025 19.3022C2.06605 19.4189 2.10482 19.5226 2.14356 19.6133C2.18229 19.6911 2.20812 19.7689 2.24685 19.8467C2.25979 19.8726 2.27266 19.8985 2.28559 19.9115C2.33726 20.0152 2.38889 20.1059 2.44054 20.1967C2.50511 20.2874 2.56967 20.3782 2.63423 20.4689C2.69879 20.5467 2.77627 20.6374 2.85374 20.7152C2.93122 20.793 3.00869 20.8578 3.09909 20.9356C3.09909 20.9356 3.11202 20.9486 3.12489 20.9486C3.20237 21.0134 3.27984 21.0782 3.35732 21.1301C3.4477 21.1949 3.53809 21.2467 3.64139 21.2986C3.73178 21.3505 3.83508 21.4023 3.93838 21.4412C4.01586 21.4801 4.10624 21.506 4.19663 21.5319C4.20957 21.5449 4.22244 21.5449 4.2483 21.5578C4.29998 21.5708 4.36451 21.5837 4.41617 21.5967C4.37743 22.2967 4.36449 22.9578 4.46784 23.1912C4.58404 23.4505 5.1522 22.6597 5.72036 21.7523C5.64288 22.6467 5.59123 23.6968 5.72036 24.0079C5.86239 24.3319 6.63715 23.3208 7.3086 22.206C16.4636 20.08 24.8181 26.432 25.6961 35.4025C25.5282 34.0025 23.8109 33.2247 23.0232 33.4192C22.6358 34.3784 21.9773 35.6099 20.9185 36.3748C21.0088 35.5192 20.9701 34.6377 20.7893 33.7821C20.5053 34.9748 19.95 36.0896 19.1882 37.0489C17.9615 37.1396 16.7348 36.5433 16.0891 35.6488C16.0375 35.6099 16.0246 35.5322 15.9858 35.4803C15.9471 35.3896 15.9084 35.2988 15.8825 35.2081C15.8438 35.1173 15.818 35.0266 15.8051 34.9359C15.7921 34.8451 15.7921 34.7544 15.7921 34.6507C15.7921 34.5859 15.7921 34.521 15.7921 34.4562C15.8051 34.3655 15.8309 34.2747 15.8567 34.184C15.8825 34.0933 15.9084 34.0025 15.9471 33.9118C15.9988 33.821 16.0375 33.7303 16.102 33.6395C16.3216 33.0173 16.3216 32.5117 15.9213 32.2136C15.8438 32.1617 15.7663 32.1228 15.6759 32.084C15.6243 32.071 15.5597 32.0451 15.5081 32.0321C15.4693 32.0191 15.4435 32.0062 15.4048 31.9932C15.3144 31.9673 15.224 31.9413 15.1336 31.9284C15.0432 31.9025 14.9528 31.8895 14.8624 31.8895C14.772 31.8765 14.6687 31.8636 14.5784 31.8636C14.5138 31.8636 14.4492 31.8766 14.3847 31.8766C14.2814 31.8766 14.191 31.8896 14.1006 31.9154C14.0102 31.9284 13.9198 31.9414 13.8294 31.9673C13.739 31.9932 13.6487 32.0192 13.5583 32.0581C13.4679 32.097 13.3904 32.1358 13.3 32.1747C13.2225 32.2136 13.1451 32.2655 13.0547 32.3044C10.046 34.2748 11.8409 38.8897 13.894 40.2249C13.1192 40.3675 12.3316 40.536 12.1121 40.7045C12.0991 40.7175 12.0863 40.7304 12.0863 40.7304C12.6415 41.0675 13.2226 41.3527 13.8294 41.599C14.6559 41.8712 15.5339 42.1175 15.9213 42.2212V42.2342C16.993 42.4546 18.0777 42.5323 19.1753 42.4675C24.8955 42.0657 29.5828 37.6971 30.435 31.9414C30.4608 32.0581 30.4867 32.1618 30.5125 32.2784C30.5512 32.5118 30.6029 32.7581 30.6287 33.0044C30.6287 33.0044 30.6287 33.0044 30.6287 33.0174C30.6545 33.134 30.6674 33.2507 30.6804 33.3544C30.6804 33.3803 30.6804 33.3933 30.6804 33.4063C30.6933 33.523 30.7062 33.6396 30.7062 33.7433C30.7191 33.8859 30.732 34.0285 30.732 34.1711C30.732 34.2359 30.732 34.3008 30.732 34.3785C30.732 34.4433 30.7449 34.5211 30.7449 34.5859C30.7449 34.6637 30.732 34.7415 30.732 34.8193C30.732 34.8841 30.732 34.9489 30.732 35.0008C30.732 35.0915 30.719 35.1693 30.719 35.26C30.719 35.3119 30.719 35.3637 30.7061 35.4286C30.7061 35.5193 30.6932 35.61 30.6932 35.7137C30.6802 35.7526 30.6802 35.7915 30.6802 35.8304C30.6673 35.9341 30.6544 36.0249 30.6415 36.1286C30.6415 36.1675 30.6415 36.2063 30.6286 36.2452C30.6156 36.3749 30.5898 36.4915 30.5769 36.6212V36.6342V36.6471C30.5511 36.7638 30.5252 36.8934 30.4994 37.0101C30.4994 37.0231 30.4994 37.036 30.4994 37.049C30.4736 37.1657 30.4478 37.2823 30.422 37.399C30.422 37.412 30.409 37.4379 30.409 37.4509C30.3832 37.5676 30.3573 37.6842 30.3186 37.8009C30.3186 37.8139 30.3186 37.8268 30.3186 37.8398C30.2799 37.9694 30.2412 38.0861 30.2153 38.2027C30.2024 38.2157 30.2024 38.2287 30.2024 38.2287C30.1637 38.3583 30.1249 38.4879 30.0862 38.6175C30.0345 38.7472 29.9958 38.8638 29.9442 38.9935C29.8925 39.1231 29.8538 39.2528 29.8021 39.3694C29.7504 39.4991 29.6988 39.6157 29.6472 39.7453H29.6342C29.5825 39.862 29.5309 39.9917 29.4663 40.1083C29.4534 40.1472 29.4405 40.1731 29.4276 40.1991C29.4147 40.2121 29.4147 40.225 29.4018 40.238C28.5625 41.9361 27.3229 43.4269 25.7734 44.5936C25.6701 44.6584 25.5668 44.7362 25.4635 44.814C25.4377 44.8399 25.3989 44.8529 25.3731 44.8788C25.2827 44.9436 25.1923 45.0084 25.089 45.0732L25.1278 45.151H25.1407C25.3215 45.1251 25.5022 45.0991 25.683 45.0732H25.6959C26.0317 45.0214 26.3674 44.9566 26.7031 44.8917C26.7935 44.8787 26.8968 44.8529 26.9872 44.8269C27.0518 44.8139 27.1034 44.801 27.168 44.788C27.2584 44.775 27.3487 44.7491 27.4391 44.7362C27.5166 44.7103 27.5941 44.6973 27.6716 44.6713C28.9628 44.3602 30.2153 43.9324 31.4162 43.4269C29.3631 46.2399 26.6127 48.5085 23.3975 49.9992C24.8824 49.8955 26.3674 49.6492 27.8007 49.2344C33.0045 47.6918 37.3818 44.1787 40.0031 39.4472C39.4737 42.4417 38.2857 45.2936 36.5296 47.7825C37.7821 46.9529 38.9313 45.9936 39.9772 44.9047C42.8697 41.8713 44.7678 38.0212 45.4134 33.8859C45.8525 35.9341 45.9816 38.0471 45.7879 40.1342C55.1108 27.0803 46.5627 13.5467 42.9859 9.98179C42.9729 9.95588 42.9601 9.9429 42.9601 9.91697C42.9471 9.92995 42.9471 9.92995 42.9471 9.94288C42.9471 9.9299 42.9471 9.9299 42.9342 9.91697C42.9342 10.0725 42.9213 10.2281 42.9084 10.3836C42.8696 10.6818 42.8309 10.967 42.7793 11.2522C42.7147 11.5374 42.6372 11.8226 42.5597 12.1078C42.4694 12.38 42.3661 12.6652 42.2498 12.9374C42.1336 13.1967 42.0045 13.4689 41.8625 13.7282C41.7204 13.9745 41.5655 14.2337 41.3976 14.4671C41.2298 14.7134 41.049 14.9467 40.8682 15.1671C40.6745 15.4004 40.4679 15.6078 40.2613 15.8152C40.1322 15.9319 40.016 16.0356 39.8868 16.1393C39.7835 16.2301 39.6932 16.3078 39.5898 16.3986C39.3574 16.5801 39.125 16.7486 38.8668 16.9041C38.6214 17.0597 38.3632 17.2153 38.1049 17.3449C37.8337 17.4745 37.5626 17.5912 37.2914 17.7079C37.0203 17.8116 36.7362 17.9023 36.4521 17.9801C36.168 18.0579 35.871 18.1227 35.587 18.1745C35.29 18.2264 34.993 18.2523 34.7089 18.2782C34.5023 18.2912 34.2957 18.3042 34.0891 18.3042C33.7921 18.3042 33.4951 18.2782 33.211 18.2523C32.9141 18.2264 32.6171 18.1875 32.333 18.1226C32.036 18.0708 31.7519 17.993 31.4678 17.9023H31.4549C31.739 17.8764 32.0231 17.8504 32.3072 17.7986C32.6041 17.7467 32.8882 17.6819 33.1723 17.6041C33.4564 17.5263 33.7404 17.4356 34.0116 17.3319C34.2957 17.2282 34.5668 17.0986 34.8251 16.9689C35.0963 16.8393 35.3416 16.6967 35.5999 16.5411C35.8452 16.3726 36.0905 16.2041 36.323 16.0226C36.5554 15.8411 36.7749 15.6467 36.9815 15.4393C37.201 15.2448 37.3947 15.0244 37.5884 14.8041C37.7821 14.5707 37.9629 14.3374 38.1307 14.104C38.1565 14.0652 38.1824 14.0133 38.2082 13.9744C38.3373 13.767 38.4664 13.5596 38.5827 13.3522C38.7247 13.0929 38.8538 12.8336 38.97 12.5614C39.0862 12.2892 39.1895 12.017 39.2799 11.7318C39.3703 11.4595 39.4349 11.1744 39.4995 10.8892C39.5511 10.591 39.6027 10.3058 39.6286 10.0206C39.6544 9.72248 39.6802 9.42433 39.6802 9.13914C39.6802 8.93172 39.6673 8.72431 39.6544 8.5169C39.6286 8.21875 39.5899 7.93356 39.5511 7.64837C39.4995 7.35021 39.4349 7.06503 39.3575 6.77983C39.2671 6.50761 39.1767 6.22241 39.0734 5.95019C38.9701 5.67796 38.841 5.40573 38.7118 5.14646C38.5698 4.8872 38.4277 4.62794 38.2728 4.38164C38.1049 4.13534 37.9371 3.902 37.7563 3.66866C37.5626 3.44829 37.3689 3.22791 37.1623 3.00754C37.059 2.90383 36.9428 2.78716 36.8266 2.68346C36.2455 2.22974 35.6386 1.80196 35.0317 1.41306C34.9414 1.36119 34.8639 1.32232 34.7735 1.28343C34.3474 1.0112 33.9471 0.868604 33.5468 0.738976L33.5468 0.738904Z" fill="#E0234E"/>
</svg>
