<svg width="80" height="60" viewBox="0 0 80 60" fill="none" xmlns="http://www.w3.org/2000/svg">
<path d="M39.6409 58.9551C39.3847 58.9551 39.13 58.8746 38.9058 58.7182L36.5656 57.0509C36.2163 56.8153 36.387 56.7321 36.5021 56.6837C36.9682 56.4889 37.0626 56.4439 37.5602 56.1042C37.6119 56.0692 37.6807 56.0825 37.7342 56.1203L39.5319 57.4056C39.5972 57.4492 39.6891 57.4492 39.7489 57.4056L46.7577 52.5342C46.823 52.4894 46.8647 52.399 46.8647 52.3058V42.5658C46.8647 42.4705 46.8228 42.3816 46.756 42.3332L39.7502 37.466C39.6856 37.4204 39.5995 37.4204 39.5342 37.466L32.5302 42.3347C32.4621 42.3816 32.4189 42.4735 32.4189 42.5658V52.3058C32.4189 52.399 32.4619 52.4873 32.5295 52.5315L34.4495 53.8673C35.4912 54.4946 36.1289 53.7558 36.1289 53.0136V43.3967C36.1289 43.2608 36.2198 43.1535 36.3326 43.1535H37.2214C37.3326 43.1535 37.4246 43.2608 37.4246 43.3967V53.0136C37.4246 54.6879 36.6674 55.6481 35.3493 55.6481C34.9442 55.6481 34.6253 55.6481 33.7349 55.1197L31.897 53.8456C31.4432 53.5295 31.1619 52.9386 31.1619 52.3058V42.5658C31.1619 41.933 31.443 41.3421 31.897 41.0275L38.9058 36.1504C39.3493 35.8483 39.9388 35.8483 40.3788 36.1504L47.387 41.0275C47.8409 41.3436 48.1232 41.933 48.1232 42.5658V52.3058C48.1232 52.9386 47.8409 53.5274 47.387 53.8456L40.3788 58.7184C40.1547 58.8746 39.9005 58.9551 39.6409 58.9551Z" fill="#699F63"/>
<path d="M41.8058 52.2448C38.7388 52.2448 38.0963 50.5496 38.0963 49.1275C38.0963 48.9923 38.1865 48.8844 38.2989 48.8844H39.2051C39.3063 48.8844 39.3907 48.972 39.4065 49.0912C39.5433 50.202 39.9512 50.7627 41.806 50.7627C43.2825 50.7627 43.9111 50.3605 43.9111 49.4172C43.9111 48.8734 43.733 48.4696 41.4382 48.199C39.5207 47.9706 38.3346 47.4604 38.3346 45.6129C38.3346 43.9099 39.5265 42.8943 41.5251 42.8943C43.7703 42.8943 44.8814 43.8328 45.0221 45.8461C45.0274 45.9154 45.007 45.9822 44.9686 46.0339C44.9302 46.0823 44.8767 46.1117 44.8202 46.1117H43.9105C43.8163 46.1117 43.733 46.0312 43.7139 45.9211C43.4956 44.7522 42.9649 44.3787 41.5251 44.3787C39.913 44.3787 39.7256 45.0549 39.7256 45.5616C39.7256 46.1755 39.9468 46.3542 42.1233 46.7011C44.2772 47.0438 45.3004 47.5295 45.3004 49.3523C45.3 51.1914 44.0267 52.2448 41.8058 52.2448Z" fill="#699F63"/>
<path d="M51.9121 42.0298C51.9121 42.9247 51.3045 43.6563 50.5614 43.6563C49.8251 43.6563 49.2107 42.9334 49.2107 42.0298C49.2107 41.1089 49.8398 40.4028 50.5614 40.4028C51.2905 40.4028 51.9121 41.1089 51.9121 42.0298ZM49.4288 42.0251C49.4288 42.7827 49.9361 43.3939 50.5577 43.3939C51.1868 43.3939 51.6944 42.7699 51.6944 42.0251C51.6944 41.268 51.18 40.6654 50.5577 40.6654C49.9431 40.6656 49.4288 41.2591 49.4288 42.0251ZM50.0538 41.1173H50.5759C50.7545 41.1173 51.1049 41.1173 51.1049 41.5994C51.1049 41.9351 50.9263 42.0038 50.8186 42.0469C51.0263 42.0642 51.0403 42.2277 51.0688 42.4601C51.0833 42.6063 51.1049 42.8561 51.1474 42.942H50.8261C50.8186 42.8563 50.7686 42.3913 50.7686 42.3657C50.7477 42.2622 50.7186 42.2108 50.6116 42.2108H50.3474V42.942H50.054V41.1173H50.0538ZM50.3402 41.9176H50.5758C50.7684 41.9176 50.8045 41.7543 50.8045 41.6596C50.8045 41.4097 50.6614 41.4097 50.5828 41.4097H50.3402V41.9176Z" fill="#699F63"/>
<path d="M17.9374 20.8472C17.9374 20.4583 17.7674 20.1008 17.4886 19.9082L10.0579 14.7585C9.93229 14.6696 9.79141 14.6233 9.64878 14.6161C9.63597 14.6161 9.58246 14.6161 9.57194 14.6161C9.43001 14.6231 9.28913 14.6694 9.16158 14.7585L1.73088 19.9082C1.45387 20.1008 1.28159 20.4583 1.28159 20.8472L1.2979 34.7138C1.2979 34.9065 1.38106 35.086 1.52194 35.1805C1.65983 35.28 1.83036 35.28 1.96773 35.1805L6.38387 32.1353C6.66316 31.9356 6.83316 31.583 6.83316 31.1977V24.7191C6.83316 24.3329 7.00299 23.9755 7.28123 23.7837L9.16158 22.4795C9.30176 22.3821 9.45492 22.3344 9.61141 22.3344C9.76439 22.3344 9.92158 22.3821 10.0577 22.4795L11.9375 23.7837C12.2158 23.9757 12.3863 24.3332 12.3863 24.7191V31.1977C12.3863 31.583 12.5586 31.9377 12.8361 32.1353L17.2511 35.1805C17.3895 35.28 17.5625 35.28 17.6998 35.1805C17.8367 35.0858 17.9228 34.9065 17.9228 34.7138L17.9374 20.8472Z" fill="#333333"/>
<path d="M53.6912 1.78542C53.5521 1.69225 53.3824 1.69436 53.2451 1.79133C53.1081 1.88852 53.0237 2.06577 53.0237 2.25739V15.9898C53.0237 16.1248 52.9637 16.2499 52.8668 16.3175C52.7696 16.3851 52.6498 16.3851 52.5524 16.3175L50.6914 15.0262C50.4137 14.8335 50.0721 14.8339 49.7946 15.0266L42.3609 20.1927C42.083 20.3858 41.9119 20.7427 41.9119 21.1287V31.463C41.9119 31.8492 42.083 32.2058 42.3607 32.3994L49.794 37.5693C50.0719 37.7624 50.414 37.7624 50.6919 37.5693L58.1263 32.3994C58.404 32.2061 58.5751 31.8492 58.5751 31.463V5.7019C58.5751 5.31021 58.3991 4.94873 58.1147 4.75774L53.6912 1.78542ZM53.0016 28.0675C53.0016 28.1639 52.9588 28.2532 52.8893 28.3012L50.337 30.0729C50.2677 30.1208 50.1823 30.1208 50.113 30.0729L47.5607 28.3012C47.4912 28.2532 47.4484 28.1639 47.4484 28.0675V24.5185C47.4484 24.4221 47.4912 24.3327 47.5605 24.2844L50.1128 22.5091C50.1823 22.4607 50.2679 22.4607 50.3374 22.5091L52.8896 24.2844C52.9589 24.3327 53.0017 24.4221 53.0017 24.5185L53.0016 28.0675Z" fill="#333333"/>
<path d="M78.4441 24.4257C78.7206 24.2324 78.8907 23.8762 78.8907 23.4911V20.9867C78.8907 20.6016 78.7206 20.2451 78.4437 20.0518L71.0579 14.8878C70.78 14.6932 70.4369 14.693 70.1585 14.8863L62.7276 20.0525C62.4499 20.2456 62.2788 20.6022 62.2788 20.9884V31.32C62.2788 31.7085 62.452 32.067 62.7321 32.2591L70.1169 37.3263C70.3892 37.5135 70.723 37.5156 70.9971 37.3323L75.4637 34.3426C75.6055 34.2477 75.6937 34.0686 75.6944 33.8738C75.6956 33.679 75.6095 33.4986 75.4692 33.4014L67.9911 28.2327C67.8514 28.1364 67.7656 27.9573 67.7656 27.7637V24.5258C67.7656 24.3327 67.8511 24.154 67.9902 24.0577L70.3176 22.4419C70.456 22.3456 70.6272 22.3456 70.7656 22.4419L73.0942 24.0577C73.2334 24.154 73.3188 24.3327 73.3188 24.5258V27.0733C73.3188 27.2668 73.4048 27.4456 73.5437 27.5419C73.6828 27.6387 73.8542 27.6378 73.993 27.5408L78.4441 24.4257Z" fill="#333333"/>
<path d="M70.4986 23.9417C70.552 23.9045 70.6176 23.9045 70.6709 23.9417L72.0972 24.9325C72.1506 24.9697 72.1834 25.038 72.1834 25.1123V27.0957C72.1834 27.1701 72.1506 27.2383 72.0972 27.2755L70.6709 28.2663C70.6176 28.3035 70.552 28.3035 70.4986 28.2663L69.0734 27.2755C69.0201 27.2383 68.9872 27.1701 68.9872 27.0957V25.1123C68.9872 25.038 69.0201 24.9697 69.0734 24.9325L70.4986 23.9417Z" fill="#699F63"/>
<path d="M30.3719 14.9402C30.0958 14.7482 29.7554 14.7482 29.4795 14.9402L22.0875 20.077C21.811 20.269 21.6409 20.6237 21.6409 21.0082V31.2898C21.6409 31.6739 21.811 32.0286 22.0872 32.221L29.4791 37.362C29.7554 37.5541 30.0958 37.5541 30.3723 37.362L37.7625 32.221C38.0386 32.0288 38.2086 31.6739 38.2086 31.2898V21.0078C38.2086 20.6237 38.0384 20.269 37.7621 20.077L30.3719 14.9402Z" fill="url(#paint0_linear)"/>
<path d="M37.7767 20.077L30.364 14.9402C30.2909 14.8893 30.2126 14.8529 30.1321 14.8291L21.8093 31.9739C21.8811 32.071 21.9651 32.1558 22.0584 32.2208L29.4835 37.3618C29.6939 37.508 29.9439 37.5422 30.1732 37.4658L37.9754 20.261C37.9161 20.1904 37.8496 20.1277 37.7767 20.077Z" fill="url(#paint1_linear)"/>
<path d="M29.2328 13.0519L29.1311 13.1218H29.2669L29.2328 13.0519Z" fill="url(#paint2_linear)"/>
<path d="M37.7809 32.2211C37.9963 32.0711 38.157 31.8215 38.2179 31.537L30.0921 14.8198C29.88 14.7689 29.6549 14.8075 29.4639 14.9404L22.101 20.0463L30.0549 37.4958C30.1684 37.4772 30.2796 37.4328 30.3814 37.3623L37.7809 32.2211Z" fill="url(#paint3_linear)"/>
<path d="M38.47 32.0556L38.4211 31.9549V32.0899L38.47 32.0556Z" fill="url(#paint4_linear)"/>
<path d="M37.7809 32.221L30.3814 37.362C30.2796 37.4328 30.1684 37.477 30.0549 37.4956L30.2023 37.8188L38.421 32.0898V31.9548L38.2179 31.537C38.157 31.8215 37.9963 32.0708 37.7809 32.221Z" fill="url(#paint5_linear)"/>
<path d="M37.7809 32.221L30.3814 37.362C30.2796 37.4328 30.1684 37.477 30.0549 37.4956L30.2023 37.8188L38.421 32.0898V31.9548L38.2179 31.537C38.157 31.8215 37.9963 32.0708 37.7809 32.221Z" fill="url(#paint6_linear)"/>
<defs>
<linearGradient id="paint0_linear" x1="32.9302" y1="18.7658" x2="24.0228" y2="33.8552" gradientUnits="userSpaceOnUse">
<stop stop-color="#41873F"/>
<stop offset="0.3288" stop-color="#418B3D"/>
<stop offset="0.6352" stop-color="#419637"/>
<stop offset="0.9319" stop-color="#3FA92D"/>
<stop offset="1" stop-color="#3FAE2A"/>
</linearGradient>
<linearGradient id="paint1_linear" x1="28.7995" y1="27.3513" x2="49.8446" y2="14.4391" gradientUnits="userSpaceOnUse">
<stop offset="0.1376" stop-color="#41873F"/>
<stop offset="0.4032" stop-color="#54A044"/>
<stop offset="0.7136" stop-color="#66B848"/>
<stop offset="0.9081" stop-color="#6CC04A"/>
</linearGradient>
<linearGradient id="paint2_linear" x1="21.3791" y1="13.0869" x2="38.4704" y2="13.0869" gradientUnits="userSpaceOnUse">
<stop offset="0.0919" stop-color="#6CC04A"/>
<stop offset="0.2864" stop-color="#66B848"/>
<stop offset="0.5968" stop-color="#54A044"/>
<stop offset="0.8624" stop-color="#41873F"/>
</linearGradient>
<linearGradient id="paint3_linear" x1="21.3793" y1="26.147" x2="38.4701" y2="26.147" gradientUnits="userSpaceOnUse">
<stop offset="0.0919" stop-color="#6CC04A"/>
<stop offset="0.2864" stop-color="#66B848"/>
<stop offset="0.5968" stop-color="#54A044"/>
<stop offset="0.8624" stop-color="#41873F"/>
</linearGradient>
<linearGradient id="paint4_linear" x1="21.377" y1="32.0224" x2="38.4701" y2="32.0224" gradientUnits="userSpaceOnUse">
<stop offset="0.0919" stop-color="#6CC04A"/>
<stop offset="0.2864" stop-color="#66B848"/>
<stop offset="0.5968" stop-color="#54A044"/>
<stop offset="0.8624" stop-color="#41873F"/>
</linearGradient>
<linearGradient id="paint5_linear" x1="21.3793" y1="34.6779" x2="38.47" y2="34.6779" gradientUnits="userSpaceOnUse">
<stop offset="0.0919" stop-color="#6CC04A"/>
<stop offset="0.2864" stop-color="#66B848"/>
<stop offset="0.5968" stop-color="#54A044"/>
<stop offset="0.8624" stop-color="#41873F"/>
</linearGradient>
<linearGradient id="paint6_linear" x1="40.96" y1="18.2794" x2="26.9008" y2="42.0961" gradientUnits="userSpaceOnUse">
<stop stop-color="#41873F"/>
<stop offset="0.3288" stop-color="#418B3D"/>
<stop offset="0.6352" stop-color="#419637"/>
<stop offset="0.9319" stop-color="#3FA92D"/>
<stop offset="1" stop-color="#3FAE2A"/>
</linearGradient>
</defs>
</svg>
