<svg width="50" height="50" viewBox="0 0 50 50" fill="none" xmlns="http://www.w3.org/2000/svg">
<path d="M18.9456 23.4621H29.2046C32.0577 23.4621 34.3343 21.1085 34.3343 18.2459V8.45733C34.3343 5.67168 31.9904 3.58711 29.2046 3.11641C25.7658 2.54961 22.0291 2.57842 18.9456 3.12588C14.6036 3.89444 13.816 5.49873 13.816 8.46699V10.562H24.0846V13.683H9.96405C6.9767 13.683 4.36365 15.4793 3.54726 18.8896C2.60587 22.7992 2.56749 25.2392 3.54726 29.3218C4.27733 32.3574 6.01597 34.5282 9.00342 34.5282H12.5289V29.8406C12.5288 26.4497 15.4586 23.4621 18.9456 23.4621Z" fill="#347AB4"/>
<path d="M46.3838 20.4465C45.644 17.4782 44.2417 15.2399 41.2542 15.2399H37.4023V19.7933C37.4023 23.3283 34.4051 26.3061 30.9853 26.3061H20.7261C17.921 26.3061 15.5964 28.7078 15.5964 31.5223V41.3014C15.5964 44.0869 18.0171 45.7199 20.7261 46.5175C23.9728 47.4684 27.0947 47.6414 30.9852 46.5175C33.5694 45.768 36.115 44.2601 36.115 41.3014V39.2509H25.8654V36.0852H41.2541C44.2417 36.0852 45.3463 34.0006 46.3837 30.8787C47.4597 27.6606 47.4117 24.5674 46.3838 20.4465Z" fill="#FFCA1D"/>
<path d="M18.3018 8.74942C17.2784 8.74942 16.4487 7.91045 16.4487 6.87793C16.4579 5.83614 17.2784 4.99717 18.3018 4.99717C19.3159 4.99717 20.1549 5.84532 20.1549 6.87793C20.1548 7.91045 19.3251 8.74942 18.3018 8.74942Z" fill="white"/>
<path d="M30.7523 44.9293C29.7289 44.9293 28.8991 44.0903 28.8991 43.0578C28.9084 42.016 29.7288 41.1771 30.7523 41.1771C31.7664 41.1771 32.6054 42.0252 32.6054 43.0578C32.6054 44.0903 31.7757 44.9293 30.7523 44.9293Z" fill="white"/>
</svg>
