<svg width="60" height="60" viewBox="0 0 60 60" fill="none" xmlns="http://www.w3.org/2000/svg">
<g clip-path="url(#clip0)">
<path d="M29.95 34.98C32.7225 34.98 34.97 32.7325 34.97 29.96C34.97 27.1875 32.7225 24.94 29.95 24.94C27.1775 24.94 24.93 27.1875 24.93 29.96C24.93 32.7325 27.1775 34.98 29.95 34.98Z" fill="#00D8FF"/>
<path d="M29.95 41.46C22.9 41.46 16.74 40.63 12.13 39.05C9.14001 38.03 6.60001 36.67 4.79001 35.12C2.87001 33.48 1.85001 31.69 1.85001 29.96C1.85001 26.64 5.49001 23.39 11.6 21.27C16.6 19.53 23.12 18.56 29.94 18.56C36.64 18.56 43.07 19.5 48.04 21.22C50.95 22.22 53.4 23.52 55.14 24.96C57.03 26.54 58.03 28.27 58.03 29.96C58.03 33.41 53.96 36.9 47.4 39.07C42.76 40.61 36.56 41.46 29.95 41.46ZM29.95 20.96C23.48 20.96 17.08 21.9 12.4 23.53C6.78001 25.49 4.26001 28.17 4.26001 29.96C4.26001 31.82 6.97001 34.75 12.91 36.78C17.27 38.27 23.17 39.06 29.95 39.06C36.31 39.06 42.24 38.26 46.65 36.79C52.82 34.74 55.64 31.81 55.64 29.96C55.64 29.01 54.92 27.89 53.61 26.8C52.1 25.54 49.9 24.39 47.27 23.48C42.54 21.86 36.39 20.96 29.95 20.96Z" fill="#00D8FF"/>
<path d="M18.56 54.98C17.54 54.98 16.64 54.76 15.88 54.32C13.01 52.66 12.01 47.88 13.22 41.53C14.21 36.32 16.63 30.2 20.04 24.29C23.39 18.49 27.41 13.39 31.38 9.94C33.7 7.92 36.05 6.44 38.17 5.66C40.48 4.81 42.48 4.81 43.94 5.65C46.93 7.37 47.92 12.65 46.52 19.41C45.53 24.21 43.17 30 39.87 35.73C36.35 41.83 32.55 46.75 28.88 49.96C26.5 52.04 24.05 53.56 21.81 54.35C20.64 54.77 19.54 54.98 18.56 54.98ZM21.07 24.89L22.11 25.49C18.88 31.09 16.49 37.1 15.57 41.98C14.46 47.83 15.53 51.35 17.07 52.24C17.45 52.46 17.95 52.58 18.56 52.58C20.55 52.58 23.68 51.32 27.3 48.16C30.77 45.13 34.4 40.41 37.79 34.54C40.97 29.03 43.23 23.49 44.17 18.94C45.48 12.57 44.35 8.67 42.74 7.74C41.92 7.27 40.59 7.33 38.99 7.92C37.14 8.6 35.05 9.93 32.95 11.76C29.18 15.04 25.33 19.92 22.11 25.5L21.07 24.89Z" fill="#00D8FF"/>
<path d="M41.34 55.01C38.62 55.01 35.17 53.37 31.57 50.27C27.55 46.81 23.46 41.66 20.04 35.75C16.68 29.95 14.28 23.92 13.27 18.75C12.68 15.73 12.57 12.96 12.95 10.73C13.37 8.3 14.36 6.57 15.83 5.72C18.81 3.99 23.88 5.77 29.04 10.36C32.7 13.61 36.54 18.55 39.85 24.27C43.38 30.37 45.75 36.12 46.69 40.9C47.3 44 47.4 46.88 46.97 49.22C46.51 51.71 45.47 53.48 43.97 54.35C43.22 54.79 42.33 55.01 41.34 55.01ZM22.12 34.55C25.36 40.15 29.38 45.22 33.14 48.45C37.65 52.33 41.23 53.17 42.78 52.27C44.39 51.34 45.57 47.53 44.35 41.37C43.45 36.85 41.18 31.35 37.78 25.48C34.59 19.97 30.92 15.24 27.45 12.16C22.59 7.84 18.65 6.87 17.04 7.8C16.22 8.27 15.61 9.46 15.32 11.14C14.99 13.08 15.09 15.56 15.63 18.29C16.59 23.2 18.89 28.97 22.12 34.55Z" fill="#00D8FF"/>
</g>
<defs>
<clipPath id="clip0">
<rect width="60" height="60" fill="white"/>
</clipPath>
</defs>
</svg>
