<svg width="60" height="60" viewBox="0 0 60 60" fill="none" xmlns="http://www.w3.org/2000/svg">
<path d="M51.6537 34.4866C49.5542 34.4989 47.7361 35.174 46.2178 36.174C45.6648 34.6863 45.0929 33.3865 44.9992 32.4117C44.887 31.2741 44.7649 30.5994 44.8962 29.2495C45.0276 27.8993 45.6178 25.9869 45.6085 25.8497C45.5993 25.7123 45.4773 25.0247 44.2683 25.0121C43.0593 24.9998 42.0191 25.3245 41.8971 25.7495C41.775 26.1745 41.541 27.1371 41.4004 28.1369C41.1848 29.5993 38.9821 34.824 37.7356 37.5488C37.3233 36.4866 36.9766 35.5489 36.9014 34.799C36.789 33.6614 36.6672 32.9866 36.7984 31.6368C36.9296 30.2866 37.52 28.3742 37.5106 28.237C37.5012 28.0995 37.3793 27.4119 36.1705 27.3994C34.9613 27.3871 33.9212 27.7118 33.7991 28.1369C33.6773 28.5617 33.5461 29.5617 33.3024 30.5246C33.0589 31.4865 30.1251 40.1858 29.3566 42.4483C28.9628 43.598 28.6257 44.523 28.3819 45.1482C28.3446 45.248 28.3164 45.3107 28.2976 45.3608C28.3257 45.2983 28.3446 45.2355 28.3446 45.2609C28.1383 45.7981 28.0164 46.0981 28.0164 46.0981V46.1105C27.857 46.5104 27.679 46.8727 27.5947 46.8727C27.5383 46.8727 27.4166 45.8231 27.6229 44.3856C28.0632 41.3608 29.1036 36.6616 29.0942 36.4988C29.0848 36.4113 29.2909 35.599 28.4099 35.1613C27.5571 34.7489 27.2477 35.4365 27.1729 35.4365C27.098 35.4365 27.0416 35.6866 27.0416 35.6866C27.0416 35.6866 27.9883 30.387 25.2234 30.387C23.4989 30.387 21.0996 32.912 19.9188 35.1992C19.1783 35.7367 17.5755 36.8991 15.8886 38.1363C15.2419 38.6114 14.5764 39.0986 13.9485 39.5613C13.9017 39.4985 13.8641 39.4361 13.8173 39.3736C10.4619 34.5993 4.26674 31.2245 4.52931 24.8123C4.62296 22.4749 5.23223 16.3382 16.4416 8.88871C25.6267 2.78922 32.9745 4.46417 34.24 8.18874C36.058 13.5009 30.3127 23.3876 20.7717 24.8123C17.1352 25.3498 15.2234 23.475 14.7453 22.7752C14.2485 22.0378 14.1735 22.0001 13.986 22.1376C13.6767 22.3626 13.8736 23.0126 13.986 23.4C14.2673 24.3873 15.4387 26.1372 17.4352 27.0122C19.1876 27.7746 23.4522 28.1997 28.6069 25.5373C34.399 22.5624 38.9073 14.2755 37.5857 7.33883C36.2362 0.289587 27.473 -2.02288 19.1784 1.90174C14.2392 4.23908 8.89696 7.91391 5.05418 12.7008C0.489838 18.4005 -0.241125 23.3624 0.0586165 25.4374C1.12715 32.7991 8.73743 37.5988 11.7835 41.1484C11.6335 41.261 11.4929 41.361 11.3618 41.461C9.83414 42.4732 4.03261 46.5229 2.57981 50.798C0.939842 55.6475 2.85151 59.122 4.10748 59.5972C8.02512 61.0469 12.0366 58.4347 14.1923 54.1474C16.3477 49.8605 16.0854 44.2609 15.092 41.711C15.0825 41.6736 15.0638 41.6489 15.0546 41.611C15.4481 41.2987 15.851 40.9861 16.2542 40.6737C17.032 40.0613 17.7913 39.4985 18.4566 39.0115C18.0816 40.3615 17.8099 41.9856 17.6693 44.3359C17.5006 47.0855 18.3536 50.6477 19.4595 52.0477C19.9467 52.6601 20.5372 52.6728 20.9028 52.6728C22.1962 52.6728 22.7772 51.2477 23.4239 49.5479C24.2206 47.4727 24.9235 45.0604 24.9235 45.0604C24.9235 45.0604 24.0425 51.5853 26.4512 51.5853C27.3321 51.5853 28.2133 50.0728 28.6067 49.2979V49.3103C28.6067 49.3103 28.6257 49.2605 28.6725 49.1607C28.7661 48.973 28.813 48.8604 28.813 48.8604V48.8227C29.1691 48.0103 29.9471 46.1479 31.1184 43.0733C32.637 39.0985 34.0895 34.1362 34.0895 34.1362C34.0895 34.1362 34.2207 35.349 34.6708 37.3612C34.9332 38.5486 35.4861 39.8485 35.9265 41.111C35.5706 41.7609 35.3548 42.1359 35.3548 42.1359C35.3548 42.1359 35.3548 42.1483 35.364 42.1608C35.0829 42.6611 34.7644 43.1986 34.4363 43.7236C33.2366 45.6232 31.8119 47.7983 31.6246 48.4231C31.3995 49.1607 31.4559 49.7102 31.8871 50.1355C32.2056 50.4606 32.768 50.5103 33.3584 50.4481C34.4363 50.3477 35.1955 49.998 35.5609 49.7726C36.1419 49.4981 36.8169 49.0603 37.4542 48.448C38.6258 47.2984 39.3382 45.6485 39.2724 43.4736C39.2349 42.2737 38.9442 41.0736 38.5881 39.9491C38.6913 39.7489 38.8038 39.5361 38.9069 39.3241C40.7629 35.7113 42.1967 31.7497 42.1967 31.7497C42.1967 31.7497 42.328 32.9617 42.7777 34.9741C43.0027 35.9867 43.4432 37.0991 43.8461 38.1863C42.1028 40.0738 41.0252 42.2614 40.6502 43.6983C39.9565 46.3608 40.5002 47.5603 41.5217 47.8359C41.981 47.9608 42.6371 47.6731 43.1245 47.398C43.7337 47.123 44.4648 46.6856 45.1489 46.0106C46.3205 44.861 47.4546 43.2483 47.3797 41.0611C47.3514 40.0736 47.1453 39.0863 46.8735 38.1363C48.3448 37.3117 50.2572 36.8613 52.6938 37.2365C57.9143 38.0489 58.9357 42.3984 58.7389 44.2106C58.5423 46.0357 57.4457 47.0357 57.0801 47.3356C56.7144 47.6357 56.6021 47.7482 56.6304 47.9731C56.6771 48.2981 56.8457 48.2857 57.155 48.2104C57.5864 48.1105 59.8918 46.7355 59.9947 43.3732C60.145 39.1235 57.0804 34.4492 51.6537 34.4866ZM11.418 52.5725C9.69366 55.0848 7.27551 56.0347 6.23528 55.2348C5.11992 54.3727 5.56041 50.6728 7.68795 47.9978C8.98135 46.3731 10.6496 44.8734 11.7556 43.9485C12.0086 43.7486 12.3742 43.4486 12.8241 43.086C12.8991 43.0239 12.9366 42.9987 12.9366 42.9987C13.0208 42.9234 13.1146 42.8611 13.2084 42.786C13.986 46.5857 13.2363 49.9352 11.418 52.5725ZM24.0146 41.1484C23.4147 43.1106 22.1494 48.1104 21.3811 47.8479C20.725 47.6228 20.3218 43.8107 21.2499 40.0613C21.7184 38.1737 22.7118 35.9241 23.3024 35.0493C24.2489 33.6367 25.2892 33.1867 25.533 33.7492C25.8609 34.4866 24.3894 39.9237 24.0146 41.1484ZM34.4178 47.7732C34.1649 47.9481 33.9305 48.0604 33.818 47.9729C33.7338 47.9105 33.9212 47.6729 33.9212 47.6729C33.9212 47.6729 35.2238 45.8106 35.7394 44.9603C36.0392 44.4606 36.3859 43.873 36.7609 43.2233C36.7609 43.2854 36.7701 43.3484 36.7701 43.423C36.7611 45.6606 35.149 47.1733 34.4178 47.7732ZM42.4408 45.3357C42.2533 45.1607 42.2813 44.5733 42.9093 42.7482C43.1531 42.0357 43.7155 40.836 44.69 39.6861C44.8026 40.1609 44.8681 40.6108 44.8681 41.0357C44.8585 43.8481 43.3498 44.8981 42.4408 45.3357Z" fill="#CF649A"/>
</svg>
