<?xml version="1.0" encoding="UTF-8"?>
<svg xmlns="http://www.w3.org/2000/svg" xmlns:xlink="http://www.w3.org/1999/xlink" width="104pt" height="13pt" viewBox="0 0 104 13" version="1.1">
<defs>
<linearGradient id="linear0" gradientUnits="userSpaceOnUse" x1="-0.02778" y1="0.32" x2="1" y2="0.67556" gradientTransform="matrix(21.476562,0,0,12.886719,0,0)">
<stop offset="0" style="stop-color:rgb(13.333333%,59.607843%,74.117647%);stop-opacity:1;"/>
<stop offset="1" style="stop-color:rgb(5.490196%,84.313725%,70.980392%);stop-opacity:1;"/>
</linearGradient>
</defs>
<g id="surface1">
<path style=" stroke:none;fill-rule:nonzero;fill:url(#linear0);" d="M 10.738281 0 C 7.875 0 6.085938 1.433594 5.371094 4.296875 C 6.441406 2.863281 7.695312 2.328125 9.128906 2.683594 C 9.945312 2.890625 10.527344 3.480469 11.175781 4.136719 C 12.226562 5.207031 13.445312 6.441406 16.109375 6.441406 C 18.972656 6.441406 20.761719 5.011719 21.476562 2.148438 C 20.402344 3.578125 19.152344 4.117188 17.71875 3.757812 C 16.902344 3.554688 16.316406 2.960938 15.671875 2.304688 C 14.617188 1.238281 13.398438 0 10.738281 0 Z M 5.371094 6.441406 C 2.503906 6.441406 0.714844 7.875 0 10.738281 C 1.074219 9.304688 2.328125 8.769531 3.757812 9.128906 C 4.574219 9.332031 5.160156 9.925781 5.804688 10.582031 C 6.859375 11.648438 8.078125 12.886719 10.738281 12.886719 C 13.601562 12.886719 15.390625 11.453125 16.109375 8.589844 C 15.035156 10.023438 13.78125 10.558594 12.347656 10.203125 C 11.53125 9.996094 10.949219 9.40625 10.300781 8.75 C 9.25 7.679688 8.03125 6.441406 5.371094 6.441406 Z M 5.371094 6.441406 "/>
<path style=" stroke:none;fill-rule:nonzero;fill:rgb(17.647059%,21.568627%,28.235294%);fill-opacity:1;" d="M 32.214844 5.429688 L 30.339844 5.429688 L 30.339844 9.058594 C 30.339844 10.023438 30.976562 10.007812 32.214844 9.949219 L 32.214844 11.414062 C 29.707031 11.71875 28.707031 11.023438 28.707031 9.058594 L 28.707031 5.429688 L 27.316406 5.429688 L 27.316406 3.859375 L 28.707031 3.859375 L 28.707031 1.828125 L 30.339844 1.34375 L 30.339844 3.859375 L 32.214844 3.859375 Z M 39.359375 3.859375 L 40.988281 3.859375 L 40.988281 11.414062 L 39.359375 11.414062 L 39.359375 10.328125 C 38.785156 11.128906 37.890625 11.609375 36.714844 11.609375 C 34.65625 11.609375 32.949219 9.875 32.949219 7.636719 C 32.949219 5.382812 34.65625 3.660156 36.714844 3.660156 C 37.890625 3.660156 38.785156 4.144531 39.359375 4.929688 Z M 36.96875 10.054688 C 38.332031 10.054688 39.359375 9.042969 39.359375 7.636719 C 39.359375 6.230469 38.332031 5.21875 36.96875 5.21875 C 35.609375 5.21875 34.582031 6.230469 34.582031 7.636719 C 34.582031 9.042969 35.609375 10.054688 36.96875 10.054688 Z M 43.710938 2.722656 C 43.136719 2.722656 42.667969 2.242188 42.667969 1.683594 C 42.667969 1.105469 43.136719 0.640625 43.710938 0.640625 C 44.285156 0.640625 44.753906 1.105469 44.753906 1.683594 C 44.753906 2.242188 44.285156 2.722656 43.710938 2.722656 Z M 42.894531 11.414062 L 42.894531 3.859375 L 44.527344 3.859375 L 44.527344 11.414062 Z M 46.414062 11.414062 L 46.414062 0.382812 L 48.046875 0.382812 L 48.046875 11.414062 Z M 58.644531 3.859375 L 60.367188 3.859375 L 57.992188 11.414062 L 56.390625 11.414062 L 54.820312 6.320312 L 53.230469 11.414062 L 51.628906 11.414062 L 49.257812 3.859375 L 50.980469 3.859375 L 52.445312 9.070312 L 54.03125 3.859375 L 55.589844 3.859375 L 57.160156 9.070312 Z M 62.390625 2.722656 C 61.816406 2.722656 61.347656 2.242188 61.347656 1.683594 C 61.347656 1.105469 61.816406 0.640625 62.390625 0.640625 C 62.964844 0.640625 63.433594 1.105469 63.433594 1.683594 C 63.433594 2.242188 62.964844 2.722656 62.390625 2.722656 Z M 61.574219 11.414062 L 61.574219 3.859375 L 63.207031 3.859375 L 63.207031 11.414062 Z M 69.070312 3.660156 C 70.765625 3.660156 71.972656 4.808594 71.972656 6.773438 L 71.972656 11.414062 L 70.339844 11.414062 L 70.339844 6.941406 C 70.339844 5.792969 69.675781 5.1875 68.648438 5.1875 C 67.574219 5.1875 66.726562 5.824219 66.726562 7.363281 L 66.726562 11.414062 L 65.097656 11.414062 L 65.097656 3.859375 L 66.726562 3.859375 L 66.726562 4.824219 C 67.226562 4.039062 68.042969 3.660156 69.070312 3.660156 Z M 79.710938 0.835938 L 81.34375 0.835938 L 81.34375 11.414062 L 79.710938 11.414062 L 79.710938 10.328125 C 79.136719 11.128906 78.246094 11.609375 77.066406 11.609375 C 75.011719 11.609375 73.304688 9.875 73.304688 7.636719 C 73.304688 5.382812 75.011719 3.660156 77.066406 3.660156 C 78.246094 3.660156 79.136719 4.144531 79.710938 4.929688 Z M 77.324219 10.054688 C 78.683594 10.054688 79.710938 9.042969 79.710938 7.636719 C 79.710938 6.230469 78.683594 5.21875 77.324219 5.21875 C 75.960938 5.21875 74.933594 6.230469 74.933594 7.636719 C 74.933594 9.042969 75.960938 10.054688 77.324219 10.054688 Z M 86.8125 11.609375 C 84.53125 11.609375 82.824219 9.875 82.824219 7.636719 C 82.824219 5.382812 84.53125 3.660156 86.8125 3.660156 C 88.296875 3.660156 89.578125 4.433594 90.183594 5.609375 L 88.777344 6.425781 C 88.445312 5.71875 87.707031 5.261719 86.800781 5.261719 C 85.46875 5.261719 84.457031 6.277344 84.457031 7.636719 C 84.457031 8.996094 85.46875 10.007812 86.800781 10.007812 C 87.707031 10.007812 88.445312 9.539062 88.808594 8.84375 L 90.214844 9.644531 C 89.578125 10.839844 88.296875 11.609375 86.8125 11.609375 Z M 92.90625 5.945312 C 92.90625 7.320312 96.96875 6.488281 96.96875 9.285156 C 96.96875 10.792969 95.65625 11.609375 94.023438 11.609375 C 92.511719 11.609375 91.425781 10.929688 90.941406 9.84375 L 92.347656 9.027344 C 92.585938 9.707031 93.191406 10.113281 94.023438 10.113281 C 94.75 10.113281 95.308594 9.875 95.308594 9.269531 C 95.308594 7.921875 91.242188 8.679688 91.242188 5.972656 C 91.242188 4.554688 92.464844 3.660156 94.007812 3.660156 C 95.246094 3.660156 96.273438 4.234375 96.804688 5.234375 L 95.429688 6.003906 C 95.15625 5.414062 94.628906 5.144531 94.007812 5.144531 C 93.417969 5.144531 92.90625 5.398438 92.90625 5.945312 Z M 99.871094 5.945312 C 99.871094 7.320312 103.9375 6.488281 103.9375 9.285156 C 103.9375 10.792969 102.621094 11.609375 100.992188 11.609375 C 99.480469 11.609375 98.390625 10.929688 97.90625 9.84375 L 99.3125 9.027344 C 99.554688 9.707031 100.160156 10.113281 100.992188 10.113281 C 101.714844 10.113281 102.273438 9.875 102.273438 9.269531 C 102.273438 7.921875 98.210938 8.679688 98.210938 5.972656 C 98.210938 4.554688 99.433594 3.660156 100.976562 3.660156 C 102.214844 3.660156 103.242188 4.234375 103.773438 5.234375 L 102.394531 6.003906 C 102.125 5.414062 101.59375 5.144531 100.976562 5.144531 C 100.386719 5.144531 99.871094 5.398438 99.871094 5.945312 Z M 99.871094 5.945312 "/>
</g>
</svg>
