<svg width="50" height="50" viewBox="0 0 50 50" fill="none" xmlns="http://www.w3.org/2000/svg">
<path d="M0 24.9988V49.998H50V-0.0019989H0V24.9988ZM40.2933 23.0067C41.5628 23.3238 42.5315 23.8879 43.4205 24.8082C43.8814 25.3003 44.5635 26.1972 44.6189 26.4112C44.6345 26.4737 42.4604 27.9346 41.1425 28.7526C41.0956 28.7838 40.9042 28.5784 40.6894 28.2604C40.0464 27.3229 39.3722 26.919 38.3402 26.8479C36.8246 26.7448 35.8403 27.5385 35.8559 28.8635C35.8559 29.2526 35.9106 29.4822 36.07 29.801C36.4036 30.4916 37.0231 30.9041 38.9668 31.7462C42.5463 33.2852 44.0775 34.3008 45.0291 35.7461C46.0915 37.357 46.3306 39.9288 45.6087 41.8412C44.815 43.9208 42.8471 45.3333 40.0777 45.802C39.2207 45.9528 37.1887 45.9294 36.2684 45.763C34.2606 45.406 32.356 44.4138 31.1811 43.1123C30.7201 42.6045 29.8241 41.2787 29.8795 41.1827C29.903 41.1514 30.11 41.0241 30.3405 40.8889L32.1974 39.8186L33.6349 38.9851L33.9364 39.4304C34.3567 40.0733 35.2778 40.9538 35.8333 41.2475C37.4285 42.0889 39.6191 41.9693 40.6979 41.0014C41.1589 40.5811 41.3487 40.1444 41.3487 39.5015C41.3487 38.9218 41.2784 38.6679 40.9761 38.232C40.587 37.6773 39.7933 37.2086 37.5387 36.232C34.9591 35.1211 33.8482 34.4305 32.8326 33.3352C32.2451 32.7001 31.6896 31.6845 31.4592 30.8353C31.2686 30.1291 31.2209 28.3588 31.3717 27.6448C31.9029 25.1449 33.7841 23.4145 36.4989 22.8988C37.3801 22.7324 39.4285 22.7957 40.2925 23.0098L40.2933 23.0067ZM28.5554 25.0925L28.571 27.1393H22.0634V45.631H17.4604V27.1393H10.9528V25.1316L11.0075 23.0692C11.0309 23.0379 14.9917 23.0223 19.7931 23.0301L28.5311 23.0535L28.5554 25.0925Z" fill="#007ACC"/>
</svg>
